<?xml version="1.0" encoding="UTF-8" standalone="no"?> <svg id="Layer_1" data-name="Layer 1" xmlns="http://www.w3.org/2000/svg" viewBox="0 0 128 128"><defs><style>.cls-1{fill:#2d3e50;}</style></defs><title>v</title><path class="cls-1" d="M113.957,43.63037A50.89116,50.89116,0,0,0,13.13813,55.05205c.10417,2.62782.4683,70.50828.4683,70.50828L46.9352,101.25966A50.87166,50.87166,0,0,0,113.957,43.63037ZM61.79141,25.52194a6.7906,6.7906,0,1,1-6.7906,6.7906A6.78445,6.78445,0,0,1,61.79141,25.52194Zm9.91277,57.00489H56.3017A3.43954,3.43954,0,0,1,53.856,81.51225a3.48622,3.48622,0,0,1-1.01473-2.44568,3.44234,3.44234,0,0,1,3.46041-3.46041h2.15952V53.23078h-.41637a4.05214,4.05214,0,0,1-.70253-8.03941c.1561-.026,4.57915-.88467,8.06561-1.587a3.49182,3.49182,0,0,1,4.16278,3.43437V75.60616h2.13348a3.46033,3.46033,0,1,1,0,6.92066Z"/></svg>